
<?xml version="1.0" standalone="no"?>
<!DOCTYPE svg PUBLIC "-//W3C//DTD SVG 20010904//EN"
 "http://www.w3.org/TR/2001/REC-SVG-20010904/DTD/svg10.dtd">
<svg version="1.0" xmlns="http://www.w3.org/2000/svg"
 width="544" height="128" viewBox="0 0 544.000000 128.000000"
 preserveAspectRatio="xMidYMid meet">

<g transform="translate(0.000000,128.000000) scale(0.100000,-0.100000)"
fill="#000000" stroke="none">
<path d="M80 570 c0 -315 3 -467 11 -483 6 -14 22 -30 36 -36 34 -15 1072 -15
1106 0 14 6 30 22 36 36 8 16 11 168 11 483 0 402 -2 460 -15 460 -13 0 -15
-42 -15 -320 l0 -320 -355 0 -355 0 0 49 0 48 128 5 c191 8 282 51 339 162 24
44 27 63 27 136 0 63 -5 96 -21 130 -25 56 -70 110 -91 110 -11 0 -7 -9 15
-32 51 -53 73 -112 73 -198 0 -92 -29 -161 -86 -208 -61 -51 -113 -64 -271
-69 l-143 -6 -2 -156 -3 -156 -77 -3 -78 -3 0 416 c0 362 -2 415 -15 415 -13
0 -15 -42 -15 -320 l0 -320 -105 0 -105 0 0 320 c0 278 -2 320 -15 320 -13 0
-15 -58 -15 -460z"/>
<path d="M2800 570 c0 -315 3 -467 11 -483 6 -14 22 -30 36 -36 34 -15 1072
-15 1106 0 14 6 30 22 36 36 8 16 11 168 11 483 0 402 -2 460 -15 460 -13 0
-15 -42 -15 -320 l0 -320 -355 0 -355 0 0 49 0 48 128 5 c191 8 282 51 339
162 24 44 27 63 27 136 0 63 -5 96 -21 130 -25 56 -70 110 -91 110 -11 0 -7
-9 15 -32 51 -53 73 -112 73 -198 0 -92 -29 -161 -86 -208 -61 -51 -113 -64
-271 -69 l-143 -6 -2 -156 -3 -156 -77 -3 -78 -3 0 416 c0 362 -2 415 -15 415
-13 0 -15 -42 -15 -320 l0 -320 -105 0 -105 0 0 320 c0 278 -2 320 -15 320
-13 0 -15 -58 -15 -460z"/>
<path d="M2623 969 c-10 -10 -13 -93 -13 -343 l-1 -331 -118 -112 -119 -113
-330 0 c-281 0 -331 -2 -342 -15 -11 -13 38 -15 428 -15 307 0 449 3 466 11
13 7 30 23 35 38 17 40 10 896 -6 880z"/>
<path d="M512 803 l3 -148 116 1 c133 1 171 15 202 74 23 44 18 120 -10 158
-36 50 -76 62 -201 62 l-113 0 3 -147z m248 109 c47 -23 72 -74 64 -127 -12
-79 -61 -105 -193 -105 -105 0 -101 -7 -101 148 l0 102 98 0 c72 0 106 -4 132
-18z"/>
<path d="M3232 803 l3 -148 116 1 c133 1 171 15 202 74 23 44 18 120 -10 158
-36 50 -76 62 -201 62 l-113 0 3 -147z m248 109 c47 -23 72 -74 64 -127 -12
-79 -61 -105 -193 -105 -105 0 -101 -7 -101 148 l0 102 98 0 c72 0 106 -4 132
-18z"/>
</g>
</svg>